<?xml version="1.0" encoding="utf-8"?>
<!-- Generator: Adobe Illustrator 22.1.0, SVG Export Plug-In . SVG Version: 6.00 Build 0)  -->
<svg version="1.1" id="Ebene_1" xmlns="http://www.w3.org/2000/svg" xmlns:xlink="http://www.w3.org/1999/xlink" x="0px" y="0px"
	 viewBox="0 0 180 99" style="enable-background:new 0 0 180 99;" xml:space="preserve">
<style type="text/css">
	.st0{opacity:0.1;}
	.st1{fill:#FFFF00;}
	.st2{fill:#7A7A7A;}
	.st3{fill:#3C3C3C;}
</style>
<title>Zeichenfläche 1@3x</title>
<path class="st0" d="M175.7,32.7l-0.6,0.2v33.6c0,2.5-1.8,4.7-4.3,4.7h-8.3v11.4c0,5.3-4.3,9.5-9.5,9.6h-142C9.6,92,8,91.5,6.6,90.8
	C7.3,95.4,11.2,99,16,99h142c5.2,0,9.5-4.3,9.5-9.6V78.1h8.3c2.5,0,4.3-2.2,4.3-4.7v-36C180,34.9,178.2,32.7,175.7,32.7z"/>
<path d="M0,9.6v68.1c0,5.3,4.3,9.5,9.5,9.6h142c5.2,0,9.5-4.3,9.5-9.6V66.3h8.3c2.5,0,4.3-2.2,4.3-4.7v-36c0-2.5-1.8-4.7-4.3-4.7
	H161V9.6c0-5.3-4.3-9.5-9.5-9.6H9.5C4.3,0,0,4.3,0,9.6z M6.4,9.6C6.3,8,7.6,6.6,9.1,6.5c0.1,0,0.2,0,0.4,0h142
	c1.6-0.1,3,1.1,3.1,2.7c0,0.1,0,0.2,0,0.4v67.8c0,1.8-1.2,3.1-2.8,3.1H9.5c-1.6,0.1-3-1.1-3.1-2.7c0-0.1,0-0.2,0-0.4V9.6z"/>
<path d="M83.9,34.2v8.6h5.8l-6.7,8.9v-7.4h-5.8L83.9,34.2 M88.5,18.8l-8.6,12.9l-6.4,10.2L68.9,49h9.5v16.6l8.3-11.1l6.7-8.9
	l5.5-7.4H88.4L88.5,18.8L88.5,18.8z"/>
<polygon class="st1" points="82.6,51.8 89.4,42.8 83.8,42.8 83.8,34.2 77.1,44.4 82.6,44.4 "/>
<rect x="161" y="27.4" class="st2" width="6.4" height="32.4"/>
<path class="st3" d="M173.1,23.2c-0.2-0.3-0.5-0.5-0.8-0.8c0.8,0.9,1.2,2,1.2,3.2v36c0,2.5-1.8,4.7-4.3,4.7H161v11.4
	c0,5.3-4.3,9.5-9.5,9.6H9.5c-4.9,0-8.9-3.8-9.4-8.6c0,0,0,0-0.1,0c0,0.8-0.2,6.8,4.4,10.8c1.9,1.6,4.2,2.6,6.7,2.8h142
	c5.2,0,9.5-4.3,9.5-9.6V71.2h8.3c2.5,0,4.3-2.2,4.3-4.7v-36C175.2,29.7,175.6,26,173.1,23.2z"/>
</svg>
