<?xml version="1.0" encoding="utf-8"?>
<!-- Generator: Adobe Illustrator 22.1.0, SVG Export Plug-In . SVG Version: 6.00 Build 0)  -->
<svg version="1.1" id="Ebene_1" xmlns="http://www.w3.org/2000/svg" xmlns:xlink="http://www.w3.org/1999/xlink" x="0px" y="0px"
	 viewBox="0 0 899.7 899.7" style="enable-background:new 0 0 899.7 899.7;" xml:space="preserve">
<style type="text/css">
	.st0{fill:#C9FEDA;}
	.st1{fill:#1D1D1B;}
	.st2{fill:#0A200B;}
	.st3{fill:#050605;}
	.st4{fill:#060706;}
	.st5{fill:#208733;}
	.st6{fill:#44CB60;}
	.st7{fill:#F9F9F9;}
	.st8{fill:#1D411B;}
	.st9{fill:#211E16;}
</style>
<title>Zeichenfläche 1@2x</title>
<g>
	<path class="st0" d="M346.5,84.7H553c29.7,0,53.7,24,53.7,53.7v124.1c0,29.7-24,53.7-53.7,53.7H346.5c-29.7,0-53.7-24-53.7-53.7
		V138.4C292.9,108.8,316.9,84.7,346.5,84.7z"/>
	<path class="st1" d="M553.1,87.7c28,0,50.7,22.7,50.7,50.7v124.1c0,28-22.7,50.7-50.7,50.7H346.5c-28,0-50.7-22.7-50.7-50.7V138.4
		c0-28,22.7-50.7,50.7-50.7H553.1 M553.1,81.7H346.5c-31.3,0.1-56.6,25.4-56.7,56.7v124.1c0.1,31.3,25.4,56.6,56.7,56.7h206.6
		c31.3-0.1,56.6-25.4,56.7-56.7V138.4C609.7,107.1,584.4,81.8,553.1,81.7z"/>
	<path class="st2" d="M447.4,235.5c-12.8,0-23.1-1.6-32.5-6.8c-6.5-3.6-12.3-8.2-12-16.9s6.2-15,14.9-15.7c6.7-0.5,13.3,1,19.9,1.4
		c10.9,0.5,21.7,0.1,32.2-2.6c11-2.8,20,8,17.1,19.1c-1.6,6.1-5.6,11.2-11.2,14.1C466.4,233.5,456.2,235.9,447.4,235.5z"/>
	<path class="st3" d="M530.9,177.6c-0.4,4.2-3.8,8.9-8.2,8.9c-4.7,0-8.3-5.4-8.2-10.2c0-4.9,3.9-10.1,8.5-10
		C527.8,166.5,531.4,172.5,530.9,177.6z"/>
	<path class="st4" d="M369.4,172.5c-0.3-2.8,0.4-5.7,2.1-8c0.8-1.1,2-2,3.2-2.5c1.8-0.7,3.7-0.7,5.5,0.1c3.2,1.6,3.8,5.5,4,7.5
		c0.4,2.1,0.2,4.2-0.6,6.1c-0.8,2-2.5,3.6-4.5,4.4c-2,0.6-4.2,0.4-6.1-0.6C370,177.6,369.5,174,369.4,172.5z"/>
	<path class="st5" d="M484.9,207.3c-0.6-2.5-1.3-3.3-4-2.5c-17.6,4.9-35.6,4.4-53.4,3c-5.8-0.5-12.3-0.2-17.3-4.9
		c-1.4-1.3-2.2,0.8-2.8,1.8c-3.8,5.8-2.3,14.3,3.5,18.8c3.9,2.9,8.2,5.1,12.9,6.5c3-5.6,8.2-9.7,14.4-11.3
		c11.3-3.1,22.6-2.9,32.9,3.8c1.5,0.9,3.4,1.6,3.7,3.7l0,0c1.7-1.1,3.2-2.3,4.7-3.6C483.4,218.3,486.4,213.6,484.9,207.3z"/>
	<path class="st6" d="M474.7,226.1c-0.3-2.1-2.3-2.8-3.7-3.7c-10.3-6.7-21.7-6.9-32.9-3.8c-6.2,1.6-11.4,5.7-14.4,11.3
		C441.1,234.6,458.3,235.3,474.7,226.1L474.7,226.1z"/>
	<path class="st7" d="M483.1,201.6c-12.7,4.4-25.3,4.6-38,4.7c-9.6,0.1-19.4,0.3-28.8-2.3c-1.7-0.5-4-1.2-4-3.2s2.8-1.9,4.6-2.1
		c7-0.8,13.9,0.7,20.9,1.1c10.8,0.7,21.7-0.2,32.2-2.6C474.9,196.2,479.3,196.8,483.1,201.6z"/>
</g>
<g>
	<path class="st1" d="M73.8,368.1h199.8c6.1,0,11,4.9,11,11l0,0c0,6.1-4.9,11-11,11H73.8c-6.1,0-11.1-4.9-11.1-11l0,0
		C62.8,373,67.7,368.1,73.8,368.1z"/>
	<path class="st8" d="M74.1,373.4h199.3c3.2,0,5.8,2.6,5.8,5.8l0,0c0,3.2-2.6,5.8-5.8,5.8H74.1c-3.2,0-5.8-2.6-5.8-5.8l0,0
		C68.3,376,70.9,373.4,74.1,373.4z"/>
</g>
<path class="st1" d="M71.2,787.3h39.2c4.7,0,8.5,3.8,8.5,8.5v2.2c0,4.7-3.8,8.5-8.5,8.5H71.2c-4.7,0-8.5-3.8-8.5-8.5v-2.2
	C62.7,791.1,66.5,787.3,71.2,787.3z"/>
<path class="st1" d="M71.2,819.3h39.1c4.7,0,8.5,3.8,8.5,8.5v2.2c0,4.7-3.8,8.5-8.5,8.5H71.2c-4.7,0-8.5-3.8-8.5-8.5v-2.2
	C62.7,823.1,66.5,819.3,71.2,819.3z"/>
<circle class="st1" cx="820.1" cy="379.1" r="11"/>
<path class="st9" d="M138.8,180.5h-16.4c-1.9,0-3.5-1.6-3.5-3.5v-16.4c0-1.9-1.6-3.5-3.5-3.5H89.6c-1.9,0-3.5,1.6-3.5,3.5V177
	c0,1.9-1.6,3.5-3.5,3.5H66.2c-1.9,0-3.5,1.6-3.5,3.5v25.7c0,1.9,1.6,3.5,3.5,3.5h16.4c1.9,0,3.5,1.6,3.5,3.5v16.4
	c0,1.9,1.6,3.5,3.5,3.5h25.8c1.9,0,3.5-1.6,3.5-3.5v-16.4c0-1.9,1.6-3.5,3.5-3.5h16.4c1.9,0,3.5-1.6,3.5-3.5v-25.8
	C142.3,182,140.7,180.5,138.8,180.5L138.8,180.5z"/>
<path class="st0" d="M135.2,183.9h-16.9c-1.5,0-2.8-1.2-2.8-2.8v-16.9c0-1.5-1.2-2.8-2.7-2.8l0,0H92.4c-1.5,0-2.8,1.2-2.8,2.8l0,0
	v17c0,1.5-1.2,2.8-2.8,2.8l0,0h-17c-1.5,0-2.8,1.2-2.8,2.8v20.4c0,1.5,1.2,2.8,2.8,2.8h17c1.5,0,2.8,1.2,2.8,2.7l0,0v17
	c0,1.5,1.2,2.8,2.8,2.8h20.4c1.5,0,2.8-1.2,2.8-2.8l0,0v-17c0-1.5,1.2-2.8,2.8-2.8l0,0h17c1.5,0,2.8-1.2,2.8-2.8l0,0v-20.4
	C137.9,185.1,136.7,183.9,135.2,183.9L135.2,183.9z"/>
<circle class="st1" cx="790.2" cy="130.6" r="13.9"/>
<circle class="st0" cx="790.2" cy="130.6" r="10.7"/>
<ellipse transform="matrix(0.9239 -0.3827 0.3827 0.9239 -36.7927 319.2326)" class="st1" cx="784" cy="252.1" rx="25.1" ry="25.1"/>
<circle class="st0" cx="784" cy="252.1" r="21"/>
<path class="st1" d="M700.4,228.4c-1.6,0-2.2-1.1-1.4-2.4l23.1-39.6c0.8-1.4,2.1-1.4,2.9,0l23.1,39.6c0.8,1.3,0.1,2.4-1.4,2.4H700.4
	z"/>
<path class="st0" d="M707.8,224.6c-1.6,0-2.2-1.1-1.5-2.5l15.8-28.1c0.8-1.4,2-1.4,2.8,0l15.8,28.1c0.8,1.4,0.1,2.5-1.4,2.5H707.8z"
	/>
</svg>
