<?xml version="1.0" encoding="utf-8"?>
<!-- Generator: Adobe Illustrator 22.1.0, SVG Export Plug-In . SVG Version: 6.00 Build 0)  -->
<svg version="1.1" id="Ebene_1" xmlns="http://www.w3.org/2000/svg" xmlns:xlink="http://www.w3.org/1999/xlink" x="0px" y="0px"
	 viewBox="0 0 781.7 781.7" style="enable-background:new 0 0 781.7 781.7;" xml:space="preserve">
<style type="text/css">
	.st0{fill:#C9FEDA;}
	.st1{fill:#1D1D1B;}
	.st2{fill:#0A200B;}
	.st3{fill:#050605;}
	.st4{fill:#060706;}
	.st5{fill:#208733;}
	.st6{fill:#44CB60;}
	.st7{fill:#F9F9F9;}
	.st8{fill:#1D411B;}
	.st9{fill:#043F9F;}
	.st10{fill:#02DE34;}
	.st11{fill:#2CBDF8;}
	.st12{fill:#FC3D70;}
	.st13{fill:#211E16;}
	.st14{fill:#FED20B;}
</style>
<title>Zeichenfläche 1@2x</title>
<path class="st0" d="M284.9,144.7h206.5c29.7,0,53.7,24,53.7,53.7v124.1c0,29.7-24,53.7-53.7,53.7H284.9c-29.7,0-53.7-24-53.7-53.7
	V198.4C231.3,168.8,255.3,144.7,284.9,144.7z"/>
<path class="st1" d="M491.5,147.7c28,0,50.7,22.7,50.7,50.7v124.1c0,28-22.7,50.7-50.7,50.7H284.9c-28,0-50.7-22.7-50.7-50.7V198.4
	c0-28,22.7-50.7,50.7-50.7H491.5 M491.5,141.7H284.9c-31.3,0.1-56.6,25.4-56.7,56.7v124.1c0.1,31.3,25.4,56.6,56.7,56.7h206.6
	c31.3-0.1,56.6-25.4,56.7-56.7V198.4C548.1,167.1,522.8,141.8,491.5,141.7z"/>
<path class="st2" d="M385.8,295.5c-12.8,0-23.1-1.6-32.5-6.8c-6.5-3.6-12.3-8.2-12-16.9c0.3-8.7,6.2-15,14.9-15.7
	c6.7-0.5,13.3,1,19.9,1.4c10.9,0.5,21.7,0.1,32.2-2.6c11-2.8,20,8,17.1,19.1c-1.6,6.1-5.6,11.2-11.2,14.1
	C404.8,293.5,394.6,295.9,385.8,295.5z"/>
<path class="st3" d="M469.3,237.6c-0.4,4.2-3.8,8.9-8.2,8.9c-4.7,0-8.3-5.4-8.2-10.2c0-4.9,3.9-10.1,8.5-10
	C466.2,226.5,469.8,232.5,469.3,237.6z"/>
<path class="st4" d="M307.8,232.5c-0.3-2.8,0.4-5.7,2.1-8c0.8-1.1,2-2,3.2-2.5c1.8-0.7,3.7-0.7,5.5,0.1c3.2,1.6,3.8,5.5,4,7.5
	c0.4,2.1,0.2,4.2-0.6,6.1c-0.8,2-2.5,3.6-4.5,4.4c-2,0.6-4.2,0.4-6.1-0.6C308.4,237.6,307.9,234,307.8,232.5z"/>
<path class="st5" d="M423.3,267.3c-0.6-2.5-1.3-3.3-4-2.5c-17.6,4.9-35.6,4.4-53.4,3c-5.8-0.5-12.3-0.2-17.3-4.9
	c-1.4-1.3-2.2,0.8-2.8,1.8c-3.8,5.8-2.3,14.3,3.5,18.8c3.9,2.9,8.2,5.1,12.9,6.5c3-5.6,8.2-9.7,14.4-11.3
	c11.3-3.1,22.6-2.9,32.9,3.8c1.5,0.9,3.4,1.6,3.7,3.7l0,0c1.7-1.1,3.2-2.3,4.7-3.6C421.8,278.3,424.8,273.6,423.3,267.3z"/>
<path class="st6" d="M413.1,286.1c-0.3-2.1-2.3-2.8-3.7-3.7c-10.3-6.7-21.7-6.9-32.9-3.8c-6.2,1.6-11.4,5.7-14.4,11.3
	C379.5,294.6,396.7,295.3,413.1,286.1L413.1,286.1z"/>
<path class="st7" d="M421.5,261.6c-12.7,4.4-25.3,4.6-38,4.7c-9.6,0.1-19.4,0.3-28.8-2.3c-1.7-0.5-4-1.2-4-3.2s2.8-1.9,4.6-2.1
	c7-0.8,13.9,0.7,20.9,1.1c10.8,0.7,21.7-0.2,32.2-2.6C413.3,256.2,417.7,256.8,421.5,261.6z"/>
<path class="st1" d="M239.9,418.1h199.8c6.1,0,11,4.9,11,11v0c0,6.1-4.9,11-11,11H239.9c-6.1,0-11.1-4.9-11.1-11v0
	C228.9,423,233.8,418.1,239.9,418.1z"/>
<path class="st8" d="M240.2,423.4h199.3c3.2,0,5.8,2.6,5.8,5.8l0,0c0,3.2-2.6,5.8-5.8,5.8H240.2c-3.2,0-5.8-2.6-5.8-5.8l0,0
	C234.4,426,237,423.4,240.2,423.4z"/>
<circle class="st1" cx="534.5" cy="429" r="13.9"/>
<circle class="st9" cx="534.5" cy="429" r="10.7"/>
<circle class="st1" cx="528.3" cy="550.5" r="25.1"/>
<circle class="st10" cx="528.3" cy="550.5" r="21"/>
<path class="st1" d="M444.7,526.8c-1.6,0-2.2-1.1-1.4-2.4l23.1-39.6c0.8-1.4,2.1-1.4,2.9,0l23.1,39.6c0.8,1.3,0.1,2.4-1.4,2.4H444.7
	z"/>
<path class="st11" d="M452.1,523c-1.6,0-2.2-1.1-1.5-2.5l15.8-28.1c0.8-1.4,2-1.4,2.8,0l15.8,28.1c0.8,1.4,0.1,2.5-1.4,2.5H452.1z"
	/>
<circle class="st1" cx="469.4" cy="604.7" r="35.2"/>
<circle class="st12" cx="469.4" cy="604.7" r="31.4"/>
<path class="st1" d="M237.4,613.7h39.2c4.7,0,8.5,3.8,8.5,8.5v2.2c0,4.7-3.8,8.5-8.5,8.5h-39.2c-4.7,0-8.5-3.8-8.5-8.5v-2.2
	C228.9,617.5,232.7,613.7,237.4,613.7z"/>
<path class="st1" d="M313,613.7h39.1c4.7,0,8.5,3.8,8.5,8.5v2.2c0,4.7-3.8,8.5-8.5,8.5H313c-4.7,0-8.5-3.8-8.5-8.5v-2.2
	C304.5,617.5,308.3,613.7,313,613.7z"/>
<path class="st13" d="M327.2,493.8h-16.4c-1.9,0-3.5-1.6-3.5-3.5v-16.4c0-1.9-1.6-3.5-3.5-3.5h-25.8c-1.9,0-3.5,1.6-3.5,3.5v16.4
	c0,1.9-1.6,3.5-3.5,3.5h-16.4c-1.9,0-3.5,1.6-3.5,3.5V523c0,1.9,1.6,3.5,3.5,3.5h16.4c1.9,0,3.5,1.6,3.5,3.5v16.4
	c0,1.9,1.6,3.5,3.5,3.5h25.8c1.9,0,3.5-1.6,3.5-3.5V530c0-1.9,1.6-3.5,3.5-3.5h16.4c1.9,0,3.5-1.6,3.5-3.5v-25.8
	C330.7,495.3,329.1,493.8,327.2,493.8C327.2,493.8,327.2,493.8,327.2,493.8z"/>
<path class="st14" d="M323.6,497.2h-16.9c-1.5,0-2.8-1.2-2.8-2.8v-16.9c0-1.5-1.2-2.8-2.7-2.8c0,0,0,0,0,0h-20.4
	c-1.5,0-2.8,1.2-2.8,2.8l0,0v17c0,1.5-1.2,2.8-2.8,2.8l0,0h-17c-1.5,0-2.8,1.2-2.8,2.8v20.4c0,1.5,1.2,2.8,2.8,2.8h17
	c1.5,0,2.8,1.2,2.8,2.7c0,0,0,0,0,0v17c0,1.5,1.2,2.8,2.8,2.8h20.4c1.5,0,2.8-1.2,2.8-2.8l0,0v-17c0-1.5,1.2-2.8,2.8-2.8l0,0h17
	c1.5,0,2.8-1.2,2.8-2.8l0,0v-20.4C326.3,498.4,325.1,497.2,323.6,497.2C323.6,497.2,323.6,497.2,323.6,497.2z"/>
</svg>
